<svg xmlns="http://www.w3.org/2000/svg" width="24" height="24" viewBox="0 0 24 24">
  <g id="question_btn_wh" transform="translate(-980 -217)">
    <g id="타원_44" data-name="타원 44" transform="translate(980 217)" fill="none" stroke="#fff" stroke-width="1">
      <circle cx="12" cy="12" r="12" stroke="none"/>
      <circle cx="12" cy="12" r="11.5" fill="none"/>
    </g>
    <g id="그룹_1768" data-name="그룹 1768" transform="translate(263.273 -3.419)">
      <path id="패스_1541" data-name="패스 1541" d="M225.813,181.208l-.208.224Z" transform="translate(499.925 45.928)" fill="#fff" stroke="#fff" stroke-width="0.3"/>
      <path id="패스_1542" data-name="패스 1542" d="M211.184,156.307a2.164,2.164,0,0,1,.484,1.408,2.11,2.11,0,0,1-.331,1.119,2.731,2.731,0,0,1-.48.588l-.663.655a5.13,5.13,0,0,0-1.234,1.662,5.369,5.369,0,0,0-.282,1.909h1.475a4.075,4.075,0,0,1,.236-1.578,4.655,4.655,0,0,1,1.032-1.305,11.282,11.282,0,0,0,1.453-1.607,2.55,2.55,0,0,0,.361-1.425,3.141,3.141,0,0,0-.982-2.382,4.105,4.105,0,0,0-5.39.157,4.062,4.062,0,0,0-1.011,2.879h1.475a3.993,3.993,0,0,1,.339-1.649,2.359,2.359,0,0,1,3.517-.43Z" transform="translate(518.874 71.628)" fill="#fff" stroke="#fff" stroke-width="0.3"/>
      <rect id="사각형_1312" data-name="사각형 1312" width="1.649" height="1.723" transform="translate(727.519 236.65)" fill="#fff" stroke="#fff" stroke-width="0.3"/>
    </g>
  </g>
</svg>
