<svg xmlns="http://www.w3.org/2000/svg" width="45" height="45" viewBox="0 0 45 45">
  <g id="time_img" transform="translate(-1287 -369)">
    <g id="time_ic" transform="translate(853 -17)">
      <path id="패스_196" data-name="패스 196" d="M1052.955,1071.115a16.67,16.67,0,1,1,16.67-16.67A16.689,16.689,0,0,1,1052.955,1071.115Zm0-31.408a14.738,14.738,0,1,0,14.738,14.738A14.755,14.755,0,0,0,1052.955,1039.708Z" transform="translate(-596.285 -645.776)" fill="#767f8d"/>
      <path id="패스_197" data-name="패스 197" d="M1060.4,1093.852a.962.962,0,0,1-.426-.1,12,12,0,0,1-5.6-15.808.966.966,0,0,1,1.753.812,10.073,10.073,0,0,0,4.7,13.263.966.966,0,0,1-.427,1.833Z" transform="translate(-608.58 -674.454)" fill="#767f8d"/>
      <path id="패스_198" data-name="패스 198" d="M1104.005,1075.291a.961.961,0,0,1-.474-.125l-9.669-5.454a.968.968,0,0,1-.491-.841v-10.634a.966.966,0,0,1,1.932,0v10.07l9.178,5.177a.966.966,0,0,1-.475,1.807Z" transform="translate(-637.617 -659.891)" fill="#767f8d"/>
    </g>
    <rect id="사각형_166" data-name="사각형 166" width="45" height="45" transform="translate(1287 369)" fill="none"/>
  </g>
</svg>
