<svg xmlns="http://www.w3.org/2000/svg" width="45" height="45" viewBox="0 0 45 45">
  <g id="height_img" transform="translate(-374 -369)">
    <g id="height_ic" transform="translate(-163.801 -19.374)">
      <path id="패스_184" data-name="패스 184" d="M1468.035,1075.475a.966.966,0,0,1-.966-.966v-9.03a.966.966,0,0,1,1.932,0v7.327l6.108-3.655v-8.458a.966.966,0,0,1,1.932,0v9.005a.966.966,0,0,1-.47.829l-8.04,4.811A.968.968,0,0,1,1468.035,1075.475Z" transform="translate(-908.187 -661.669)" fill="#767f8d"/>
      <path id="패스_185" data-name="패스 185" d="M1446.94,1075.379a.96.96,0,0,1-.479-.128l-8.04-4.6a.965.965,0,0,1-.486-.838v-9.255a.966.966,0,0,1,1.932,0v8.695l7.554,4.319a.966.966,0,0,1-.48,1.8Z" transform="translate(-887.094 -661.574)" fill="#767f8d"/>
      <path id="패스_186" data-name="패스 186" d="M1446.941,1054.155a.968.968,0,0,1-.5-.139l-8.04-4.867a.966.966,0,0,1,.02-1.664l8.04-4.6a.966.966,0,0,1,.96,0l8.04,4.6a.966.966,0,0,1,.02,1.664l-8.04,4.867A.969.969,0,0,1,1446.941,1054.155Zm-6.137-5.809,6.137,3.715,6.137-3.715-6.137-3.513Z" transform="translate(-887.093 -649.38)" fill="#767f8d"/>
      <path id="패스_187" data-name="패스 187" d="M1497.17,1125.152a.966.966,0,0,1-.966-.966v-9.03a.966.966,0,0,1,1.932,0v7.327l6.109-3.655v-8.458a.966.966,0,0,1,1.932,0v9.005a.967.967,0,0,1-.47.829l-8.04,4.811A.967.967,0,0,1,1497.17,1125.152Z" transform="translate(-929.282 -697.637)" fill="#767f8d"/>
      <path id="패스_188" data-name="패스 188" d="M1476.074,1125.057a.963.963,0,0,1-.479-.128l-8.04-4.6a.966.966,0,0,1-.487-.838v-9.255a.966.966,0,0,1,1.932,0v8.695l7.554,4.319a.966.966,0,0,1-.48,1.8Z" transform="translate(-908.187 -697.542)" fill="#767f8d"/>
      <path id="패스_189" data-name="패스 189" d="M1477.335,1104.168a.965.965,0,0,1-.486-.131l-8.04-4.679.972-1.67,7.545,4.391,6.146-3.721-6.617-3.787.96-1.676,8.04,4.6a.966.966,0,0,1,.02,1.665l-8.04,4.867A.965.965,0,0,1,1477.335,1104.168Z" transform="translate(-909.447 -685.684)" fill="#767f8d"/>
      <path id="패스_190" data-name="패스 190" d="M1438.9,1125.152a.965.965,0,0,1-.966-.966v-9.03a.966.966,0,0,1,1.932,0v7.327l6.108-3.655v-8.458a.966.966,0,0,1,1.932,0v9.005a.966.966,0,0,1-.47.829l-8.04,4.811A.965.965,0,0,1,1438.9,1125.152Z" transform="translate(-887.094 -697.637)" fill="#767f8d"/>
      <path id="패스_191" data-name="패스 191" d="M1417.805,1125.057a.964.964,0,0,1-.479-.128l-8.04-4.6a.966.966,0,0,1-.486-.838v-9.255a.966.966,0,0,1,1.932,0v8.695l7.554,4.319a.966.966,0,0,1-.48,1.8Z" transform="translate(-865.999 -697.542)" fill="#767f8d"/>
      <path id="패스_192" data-name="패스 192" d="M1417.806,1104.168a.966.966,0,0,1-.5-.14l-8.04-4.867a.966.966,0,0,1,.021-1.665l8.04-4.6.96,1.676-6.617,3.787,6.147,3.721,7.545-4.391.972,1.67-8.04,4.679A.965.965,0,0,1,1417.806,1104.168Z" transform="translate(-865.999 -685.684)" fill="#767f8d"/>
      <path id="패스_193" data-name="패스 193" d="M1420.189,1131.724a.529.529,0,0,1-.529-.529v-2.855a.529.529,0,0,1,1.058,0v2.855A.529.529,0,0,1,1420.189,1131.724Z" transform="translate(-873.862 -710.964)" fill="#767f8d"/>
      <path id="패스_194" data-name="패스 194" d="M1448.372,1081.63a.529.529,0,0,1-.529-.529v-2.855a.529.529,0,0,1,1.057,0v2.855A.529.529,0,0,1,1448.372,1081.63Z" transform="translate(-894.267 -674.695)" fill="#767f8d"/>
      <path id="패스_195" data-name="패스 195" d="M1478.543,1131.474a.528.528,0,0,1-.529-.529v-2.855a.529.529,0,1,1,1.057,0v2.855A.529.529,0,0,1,1478.543,1131.474Z" transform="translate(-916.112 -710.783)" fill="#767f8d"/>
    </g>
    <rect id="사각형_164" data-name="사각형 164" width="45" height="45" transform="translate(374 369)" fill="none"/>
  </g>
</svg>
