<svg xmlns="http://www.w3.org/2000/svg" width="45" height="45" viewBox="0 0 45 45">
  <g id="tokens_img" transform="translate(-984 -369)">
    <g id="token_ic" transform="translate(394.509 -20.639)">
      <path id="패스_173" data-name="패스 173" d="M1603.72,1060.271c-5.585,0-11.24-1.6-11.24-4.654s5.655-4.654,11.24-4.654,11.24,1.6,11.24,4.654S1609.3,1060.271,1603.72,1060.271Zm0-7.376c-6.022,0-9.308,1.8-9.308,2.722s3.286,2.722,9.308,2.722,9.308-1.8,9.308-2.722S1609.742,1052.895,1603.72,1052.895Z" transform="translate(-998.989 -655.324)" fill="#767f8d"/>
      <path id="패스_174" data-name="패스 174" d="M1603.72,1091.758c-5.585,0-11.24-1.6-11.24-4.654h1.932c0,.924,3.286,2.722,9.308,2.722s9.308-1.8,9.308-2.722h1.932C1614.959,1090.159,1609.3,1091.758,1603.72,1091.758Z" transform="translate(-998.989 -681.491)" fill="#767f8d"/>
      <path id="패스_175" data-name="패스 175" d="M1603.72,1111.036c-5.585,0-11.24-1.6-11.24-4.654h1.932c0,.924,3.286,2.722,9.308,2.722s9.308-1.8,9.308-2.722h1.932C1614.959,1109.437,1609.3,1111.036,1603.72,1111.036Z" transform="translate(-998.989 -695.449)" fill="#767f8d"/>
      <path id="패스_176" data-name="패스 176" d="M1603.72,1128.707c-5.585,0-11.24-1.6-11.24-4.654h1.932c0,.924,3.286,2.722,9.308,2.722s9.308-1.8,9.308-2.722h1.932C1614.959,1127.108,1609.3,1128.707,1603.72,1128.707Z" transform="translate(-998.989 -708.244)" fill="#767f8d"/>
      <path id="패스_177" data-name="패스 177" d="M1603.72,1093.389c-5.585,0-11.24-1.6-11.24-4.654v-20.2h1.932v20.2c0,.924,3.286,2.722,9.308,2.722s9.308-1.8,9.308-2.722v-20.2h1.932v20.2C1614.959,1091.79,1609.3,1093.389,1603.72,1093.389Z" transform="translate(-998.989 -668.049)" fill="#767f8d"/>
      <path id="패스_178" data-name="패스 178" d="M1671.52,1068.538" transform="translate(-1056.217 -668.049)" fill="none" stroke="#8ce1bf" stroke-linejoin="round" stroke-width="7"/>
      <g id="그룹_85" data-name="그룹 85" transform="translate(608.564 408.939)">
        <g id="그룹_83" data-name="그룹 83" transform="translate(0 4.407)">
          <path id="패스_179" data-name="패스 179" d="M1671.148,1115.125v10c0,2.037-4.6,3.688-10.274,3.688s-10.274-1.651-10.274-3.688v-10" transform="translate(-1649.635 -1115.125)" fill="#fff" stroke="rgba(0,0,0,0)" stroke-width="1"/>
          <path id="패스_180" data-name="패스 180" d="M1658.34,1129.779c-5.585,0-11.24-1.6-11.24-4.654v-10h1.932v10c0,.924,3.285,2.722,9.308,2.722s9.308-1.8,9.308-2.722v-10h1.932v10C1669.58,1128.181,1663.926,1129.779,1658.34,1129.779Z" transform="translate(-1647.101 -1115.125)" fill="#767f8d" stroke="rgba(0,0,0,0)" stroke-width="1"/>
        </g>
        <g id="그룹_84" data-name="그룹 84" transform="translate(0 0)">
          <ellipse id="타원_26" data-name="타원 26" cx="10.274" cy="3.688" rx="10.274" ry="3.688" transform="translate(0.966 0.966)" fill="#fff" stroke="rgba(0,0,0,0)" stroke-width="1"/>
          <path id="패스_181" data-name="패스 181" d="M1658.34,1108.464c-5.585,0-11.24-1.6-11.24-4.654s5.654-4.654,11.24-4.654,11.24,1.6,11.24,4.654S1663.926,1108.464,1658.34,1108.464Zm0-7.376c-6.022,0-9.308,1.8-9.308,2.722s3.285,2.722,9.308,2.722,9.308-1.8,9.308-2.722S1664.363,1101.088,1658.34,1101.088Z" transform="translate(-1647.101 -1099.156)" fill="#767f8d" stroke="rgba(0,0,0,0)" stroke-width="1"/>
        </g>
        <path id="패스_182" data-name="패스 182" d="M1658.34,1138.345c-5.585,0-11.24-1.6-11.24-4.654h1.932c0,.924,3.285,2.722,9.308,2.722s9.308-1.8,9.308-2.722h1.932C1669.58,1136.747,1663.926,1138.345,1658.34,1138.345Z" transform="translate(-1647.101 -1124.161)" fill="#767f8d" stroke="rgba(0,0,0,0)" stroke-width="1"/>
        <path id="패스_183" data-name="패스 183" d="M1726.14,1115.125" transform="translate(-1704.328 -1110.718)" fill="none" stroke="#8ce1bf" stroke-linejoin="round" stroke-width="7"/>
      </g>
    </g>
    <rect id="사각형_165" data-name="사각형 165" width="45" height="45" transform="translate(984 369)" fill="none"/>
  </g>
</svg>
