<svg xmlns="http://www.w3.org/2000/svg" width="45" height="45" viewBox="0 0 45 45">
  <g id="validators_img" transform="translate(-684 -369)">
    <g id="validators_ic" transform="translate(195.688 -18.345)">
      <g id="그룹_79" data-name="그룹 79" transform="translate(505.733 401.14)">
        <path id="패스_164" data-name="패스 164" d="M1280.063,1073.044c1.9,0,3.437,1.177,3.437,2.973s-.65,5.48-3.437,5.48c-2.926,0-3.437-3.685-3.437-5.48s1.539-2.973,3.437-2.973m0-1.393c-2.754,0-4.83,1.877-4.83,4.366,0,4.176,1.9,6.874,4.83,6.874A4.363,4.363,0,0,0,1284.1,1080a10.491,10.491,0,0,0,.794-3.981c0-2.489-2.077-4.366-4.83-4.366Z" transform="translate(-1275.024 -1071.443)" fill="#767f8d"/>
        <path id="패스_165" data-name="패스 165" d="M1279.516,1082.552c-3.061,0-5.039-2.78-5.039-7.082,0-2.608,2.166-4.574,5.039-4.574s5.039,1.967,5.039,4.574a10.709,10.709,0,0,1-.812,4.066A4.56,4.56,0,0,1,1279.516,1082.552Zm0-11.24a4.311,4.311,0,0,0-4.622,4.157c0,4.049,1.814,6.665,4.622,6.665a4.165,4.165,0,0,0,3.845-2.769,10.268,10.268,0,0,0,.776-3.9A4.311,4.311,0,0,0,1279.516,1071.313Zm0,9.846a3.2,3.2,0,0,1-3.007-2.193,9.471,9.471,0,0,1-.638-3.5c0-1.843,1.533-3.181,3.646-3.181s3.646,1.338,3.646,3.181a9.243,9.243,0,0,1-.692,3.5A3.2,3.2,0,0,1,1279.516,1081.159Zm0-8.453c-1.87,0-3.228,1.162-3.228,2.764,0,.88.156,5.272,3.228,5.272,2.553,0,3.228-3.448,3.228-5.272C1282.744,1073.869,1281.386,1072.706,1279.516,1072.706Z" transform="translate(-1274.477 -1070.896)" fill="#767f8d"/>
      </g>
      <path id="패스_166" data-name="패스 166" d="M1265.147,1125.856a26.985,26.985,0,0,1-8.369-1.159.966.966,0,0,1-.653-.8c-.026-.218-.619-5.381,1.951-8.281a5.772,5.772,0,0,1,4.527-1.907.967.967,0,0,1,.612.218l1.518,1.242a.966.966,0,0,1-1.224,1.5l-1.24-1.015a3.759,3.759,0,0,0-2.745,1.244c-1.552,1.747-1.589,4.849-1.527,6.16,5.97,1.726,13.954.4,16.365-.066.077-5.719-3.541-7.007-4.8-7.282l-2.687,2.687a.966.966,0,0,1-1.366-1.366l3.036-3.036a.966.966,0,0,1,.763-.28c.075.006,7.561.739,6.955,10.132a.966.966,0,0,1-.747.879A51.112,51.112,0,0,1,1265.147,1125.856Z" transform="translate(-755.401 -700.753)" fill="#767f8d"/>
      <g id="그룹_80" data-name="그룹 80" transform="translate(517.323 395.345)">
        <path id="패스_167" data-name="패스 167" d="M1322.063,1052.044c1.9,0,3.437,1.177,3.437,2.972s-.65,5.48-3.437,5.48c-2.926,0-3.437-3.685-3.437-5.48s1.539-2.972,3.437-2.972m0-1.393c-2.754,0-4.83,1.877-4.83,4.366,0,4.176,1.9,6.874,4.83,6.874A4.363,4.363,0,0,0,1326.1,1059a10.491,10.491,0,0,0,.794-3.981c0-2.489-2.077-4.366-4.83-4.366Z" transform="translate(-1317.024 -1050.443)" fill="#767f8d"/>
        <path id="패스_168" data-name="패스 168" d="M1321.516,1061.552c-3.061,0-5.039-2.78-5.039-7.082,0-2.608,2.166-4.574,5.039-4.574s5.039,1.967,5.039,4.574a10.709,10.709,0,0,1-.812,4.066A4.56,4.56,0,0,1,1321.516,1061.552Zm0-11.24a4.311,4.311,0,0,0-4.622,4.157c0,4.049,1.814,6.665,4.622,6.665a4.165,4.165,0,0,0,3.845-2.769,10.27,10.27,0,0,0,.776-3.9A4.311,4.311,0,0,0,1321.516,1050.313Zm0,9.846a3.2,3.2,0,0,1-3.007-2.193,9.471,9.471,0,0,1-.638-3.5c0-1.843,1.533-3.181,3.646-3.181s3.646,1.338,3.646,3.181a9.241,9.241,0,0,1-.692,3.5A3.2,3.2,0,0,1,1321.516,1060.159Zm0-8.453c-1.87,0-3.228,1.162-3.228,2.764,0,.88.156,5.272,3.228,5.272,2.553,0,3.228-3.448,3.228-5.272C1324.744,1052.869,1323.386,1051.706,1321.516,1051.706Z" transform="translate(-1316.477 -1049.896)" fill="#767f8d"/>
      </g>
      <path id="패스_169" data-name="패스 169" d="M1333.731,1104.775a.966.966,0,0,1-.055-1.93,52.427,52.427,0,0,0,6.764-.855c.078-5.72-3.541-7.008-4.8-7.283l-2.687,2.687a.966.966,0,0,1-1.366-1.366l3.036-3.036a.969.969,0,0,1,.763-.28c.075.006,7.561.739,6.955,10.132a.966.966,0,0,1-.747.879,51.613,51.613,0,0,1-7.8,1.051Z" transform="translate(-809.887 -685.549)" fill="#767f8d"/>
      <g id="그룹_82" data-name="그룹 82" transform="translate(489.313 395.345)">
        <g id="그룹_81" data-name="그룹 81" transform="translate(5.085 0)">
          <path id="패스_170" data-name="패스 170" d="M1238.989,1052.044c1.9,0,3.437,1.177,3.437,2.972s-.511,5.48-3.437,5.48c-2.787,0-3.437-3.685-3.437-5.48s1.538-2.972,3.437-2.972m0-1.393c-2.754,0-4.83,1.877-4.83,4.366a10.483,10.483,0,0,0,.794,3.981,4.363,4.363,0,0,0,4.036,2.893c2.934,0,4.83-2.7,4.83-6.874,0-2.489-2.076-4.366-4.83-4.366Z" transform="translate(-1233.95 -1050.443)" fill="#767f8d"/>
          <path id="패스_171" data-name="패스 171" d="M1234.215,1058.536a10.706,10.706,0,0,1-.812-4.066c0-2.608,2.166-4.574,5.039-4.574s5.039,1.967,5.039,4.574c0,4.3-1.978,7.082-5.039,7.082A4.56,4.56,0,0,1,1234.215,1058.536Zm-.4-4.066a10.274,10.274,0,0,0,.776,3.9,4.165,4.165,0,0,0,3.846,2.769c2.807,0,4.621-2.616,4.621-6.665a4.647,4.647,0,0,0-9.243,0Zm1.668,3.5a9.241,9.241,0,0,1-.692-3.5c0-1.843,1.533-3.181,3.646-3.181s3.645,1.338,3.645,3.181a9.47,9.47,0,0,1-.638,3.5,3.122,3.122,0,0,1-5.961,0Zm-.274-3.5c0,1.823.674,5.272,3.228,5.272,3.073,0,3.228-4.391,3.228-5.272,0-1.6-1.358-2.764-3.228-2.764S1235.214,1052.869,1235.214,1054.47Z" transform="translate(-1233.403 -1049.896)" fill="#767f8d"/>
        </g>
        <path id="패스_172" data-name="패스 172" d="M1223.619,1104.775l-.057,0a51.6,51.6,0,0,1-7.8-1.051.966.966,0,0,1-.747-.879c-.606-9.392,6.879-10.125,6.955-10.132a.967.967,0,0,1,.763.28l3.036,3.036a.966.966,0,0,1-1.366,1.366l-2.687-2.687c-1.256.273-4.88,1.559-4.8,7.283a52.421,52.421,0,0,0,6.764.855.966.966,0,0,1-.056,1.93Z" transform="translate(-1214.977 -1080.894)" fill="#767f8d"/>
      </g>
    </g>
    <rect id="사각형_163" data-name="사각형 163" width="45" height="45" transform="translate(684 369)" fill="none"/>
  </g>
</svg>
